# xmcd
#
# Track frame offsets:
#	150
#	14464
#	29277
#	60731
#	80042
#	92454
#	115558
#	134517
#	150032
#	164660
#	180921
#	197564
#	222115
#	244078
#	260055
#	276113
#	290934
#	302235
#	319742
#	333171
#
# Disc length: 4639 seconds
#
# Revision: 1
# Processed by: cddbd v1.4PL0 Copyright (c) Steve Scherf et al.
# Submitted via: audiograbber 1.82.02
#
DISCID=18121d14
DTITLE=Various Artist - Blues and Soul The Soul Years 72-73 Vol 3 
DYEAR=1900
DGENRE=
TTITLE0=The O'Jays - Backstabbers
TTITLE1=The Stylistics - Betcha By Golly Wow
TTITLE2=The Temptations - Papa Was A Rolling Stone
TTITLE3=Bill Withers - Lean On Me
TTITLE4=Betty Wright - Clean Up Woman
TTITLE5=The Chi-Lites - Have You Seen Her
TTITLE6=Junior Walker - Walk In The Night
TTITLE7=Esther Phillips - Home Is Where The Hatred Is
TTITLE8=Al Green - Let's Stay Together
TTITLE9=Billy Paul - Me and Mrs Jones
TTITLE10=Bobby Womack - That's The Way I Feel About 'Cha
TTITLE11=Curtis Mayfield - Freddie's Dead
TTITLE12=Marvin Gaye - Let's Get It On
TTITLE13=Eddie Kendricks - Keep On Trucking
TTITLE14=Harold Melvin - The Love I Lost
TTITLE15=The Isley Brothers - That Lady
TTITLE16=Ann Peebles - I Can't Stand The Rain
TTITLE17=Barry White - I'm Gonna Love You Just A Little More Babe
TTITLE18=The Chi-Lites - Stoned Out Of My Mind
TTITLE19=The Supremes - Bad Weather
EXTD=
EXTT0=
EXTT1=
EXTT2=
EXTT3=
EXTT4=
EXTT5=
EXTT6=
EXTT7=
EXTT8=
EXTT9=
EXTT10=
EXTT11=
EXTT12=
EXTT13=
EXTT14=
EXTT15=
EXTT16=
EXTT17=
EXTT18=
EXTT19=
PLAYORDER=
